<mxfile host="app.diagrams.net" modified="2021-12-08T09:29:21.725Z" agent="5.0 (Macintosh; Intel Mac OS X 10_15_7) AppleWebKit/605.1.15 (KHTML, like Gecko) Version/15.1 Safari/605.1.15" etag="185jvtUzz2V5PP9dVyXy" version="15.9.1" type="github">
  <diagram id="wQatAbjOnnW_IhG3xcrV" name="Page-1">
    <mxGraphModel dx="1102" dy="709" grid="1" gridSize="10" guides="1" tooltips="1" connect="1" arrows="1" fold="1" page="1" pageScale="1" pageWidth="827" pageHeight="1169" math="0" shadow="0">
      <root>
        <mxCell id="0" />
        <mxCell id="1" parent="0" />
        <mxCell id="eHOgZrBnqT61PYZYdOun-3" value="" style="edgeStyle=orthogonalEdgeStyle;rounded=0;orthogonalLoop=1;jettySize=auto;html=1;" edge="1" parent="1" source="eHOgZrBnqT61PYZYdOun-1" target="eHOgZrBnqT61PYZYdOun-2">
          <mxGeometry relative="1" as="geometry" />
        </mxCell>
        <mxCell id="eHOgZrBnqT61PYZYdOun-1" value="Change the Incompatibility (Variant)" style="rounded=0;whiteSpace=wrap;html=1;" vertex="1" parent="1">
          <mxGeometry x="350" y="40" width="120" height="60" as="geometry" />
        </mxCell>
        <mxCell id="eHOgZrBnqT61PYZYdOun-5" value="" style="edgeStyle=orthogonalEdgeStyle;rounded=0;orthogonalLoop=1;jettySize=auto;html=1;" edge="1" parent="1" source="eHOgZrBnqT61PYZYdOun-2" target="eHOgZrBnqT61PYZYdOun-4">
          <mxGeometry relative="1" as="geometry" />
        </mxCell>
        <mxCell id="eHOgZrBnqT61PYZYdOun-2" value="Get the Variant ID from the Payload" style="rounded=0;whiteSpace=wrap;html=1;" vertex="1" parent="1">
          <mxGeometry x="350" y="180" width="120" height="60" as="geometry" />
        </mxCell>
        <mxCell id="eHOgZrBnqT61PYZYdOun-7" value="" style="edgeStyle=orthogonalEdgeStyle;rounded=0;orthogonalLoop=1;jettySize=auto;html=1;" edge="1" parent="1" source="eHOgZrBnqT61PYZYdOun-4" target="eHOgZrBnqT61PYZYdOun-6">
          <mxGeometry relative="1" as="geometry" />
        </mxCell>
        <mxCell id="eHOgZrBnqT61PYZYdOun-4" value="Get the list of variants which referenced by the incoming variant id" style="whiteSpace=wrap;html=1;rounded=0;" vertex="1" parent="1">
          <mxGeometry x="350" y="320" width="120" height="60" as="geometry" />
        </mxCell>
        <mxCell id="eHOgZrBnqT61PYZYdOun-6" value="Update the status of all the variants" style="whiteSpace=wrap;html=1;rounded=0;" vertex="1" parent="1">
          <mxGeometry x="350" y="460" width="120" height="60" as="geometry" />
        </mxCell>
      </root>
    </mxGraphModel>
  </diagram>
</mxfile>
